<svg xmlns="http://www.w3.org/2000/svg" viewBox="0 0 200 100" fill="none">
  <path d="M20 50C20 40.5 30 30 40 30C50 30 60 40 60 50C60 60 50 70 40 70C30 70 20 60 20 50Z" fill="#FFFFFF" opacity="0.8"/>
  <path d="M60 50C60 40.5 70 30 80 30C90 30 100 40 100 50C100 60 90 70 80 70C70 70 60 60 60 50Z" fill="#FFFFFF" opacity="0.8"/>
  <path d="M100 50C100 40.5 110 30 120 30C130 30 140 40 140 50C140 60 130 70 120 70C110 70 100 60 100 50Z" fill="#FFFFFF" opacity="0.8"/>
  <path d="M140 50C140 40.5 150 30 160 30C170 30 180 40 180 50C180 60 170 70 160 70C150 70 140 60 140 50Z" fill="#FFFFFF" opacity="0.8"/>
</svg>